<svg xmlns="http://www.w3.org/2000/svg" viewBox="0 0 200 500">
  <defs>
    <linearGradient id="mantle" x1="0%" y1="0%" x2="100%" y2="0%">
      <stop offset="0%"   stop-color="#110600"/>
      <stop offset="15%"  stop-color="#3B1E04"/>
      <stop offset="40%"  stop-color="#6A3E0A"/>
      <stop offset="60%"  stop-color="#7A4E10"/>
      <stop offset="85%"  stop-color="#3B1E04"/>
      <stop offset="100%" stop-color="#110600"/>
    </linearGradient>
    <linearGradient id="mantleL" x1="0%" y1="0%" x2="100%" y2="0%">
      <stop offset="0%"   stop-color="#110600"/>
      <stop offset="60%"  stop-color="#50300A"/>
      <stop offset="100%" stop-color="#7A4E10"/>
    </linearGradient>
    <linearGradient id="mantleR" x1="0%" y1="0%" x2="100%" y2="0%">
      <stop offset="0%"   stop-color="#7A4E10"/>
      <stop offset="40%"  stop-color="#50300A"/>
      <stop offset="100%" stop-color="#110600"/>
    </linearGradient>
    <linearGradient id="robe" x1="0%" y1="0%" x2="100%" y2="0%">
      <stop offset="0%"   stop-color="#3B1E04"/>
      <stop offset="20%"  stop-color="#7A4E10"/>
      <stop offset="50%"  stop-color="#B07820"/>
      <stop offset="80%"  stop-color="#7A4E10"/>
      <stop offset="100%" stop-color="#3B1E04"/>
    </linearGradient>
    <linearGradient id="veil" x1="0%" y1="0%" x2="100%" y2="0%">
      <stop offset="0%"   stop-color="#2A1402"/>
      <stop offset="20%"  stop-color="#6A3E0A"/>
      <stop offset="50%"  stop-color="#9A6414"/>
      <stop offset="80%"  stop-color="#6A3E0A"/>
      <stop offset="100%" stop-color="#2A1402"/>
    </linearGradient>
    <radialGradient id="face" cx="48%" cy="38%" r="52%">
      <stop offset="0%"   stop-color="#C08828"/>
      <stop offset="55%"  stop-color="#9A6414"/>
      <stop offset="100%" stop-color="#6A3E0A"/>
    </radialGradient>
    <linearGradient id="gold" x1="0%" y1="0%" x2="100%" y2="0%">
      <stop offset="0%"   stop-color="#9A7A1A"/>
      <stop offset="35%"  stop-color="#D4AF37"/>
      <stop offset="55%"  stop-color="#E8C84A"/>
      <stop offset="100%" stop-color="#9A7A1A"/>
    </linearGradient>
    <linearGradient id="goldV" x1="0%" y1="0%" x2="0%" y2="100%">
      <stop offset="0%"   stop-color="#D4AF37"/>
      <stop offset="100%" stop-color="#9A7A1A"/>
    </linearGradient>
    <radialGradient id="heart" cx="40%" cy="35%" r="60%">
      <stop offset="0%"   stop-color="#E8C84A"/>
      <stop offset="50%"  stop-color="#D4AF37"/>
      <stop offset="100%" stop-color="#9A7A1A"/>
    </radialGradient>
    <linearGradient id="armL" x1="0%" y1="0%" x2="100%" y2="0%">
      <stop offset="0%"   stop-color="#6A3E0A"/>
      <stop offset="100%" stop-color="#A87018"/>
    </linearGradient>
    <linearGradient id="armR" x1="0%" y1="0%" x2="100%" y2="0%">
      <stop offset="0%"   stop-color="#A87018"/>
      <stop offset="100%" stop-color="#6A3E0A"/>
    </linearGradient>
  </defs>

  <!-- ── MANTO TRASEIRO ESQUERDO ── -->
  <path d="M 100 38
           Q 85 50  72 65
           Q 52 88  28 130
           Q 10 168  8 230
           Q 6  290  10 370
           Q 14 420  22 458
           L 55 458
           Q 48 420  44 370
           Q 40 290  42 230
           Q 44 168  58 130
           Q 70 95  82 72
           Q 90 55  100 44 Z"
        fill="url(#mantleL)"/>
  <path d="M 40 150 Q 32 220 30 310 Q 28 380 36 445"
        stroke="#2A1402" stroke-width="1.5" fill="none" opacity="0.6"/>
  <path d="M 20 195 Q 16 270 18 355"
        stroke="#2A1402" stroke-width="1" fill="none" opacity="0.35"/>

  <!-- ── MANTO TRASEIRO DIREITO ── -->
  <path d="M 100 38
           Q 115 50  128 65
           Q 148 88  172 130
           Q 190 168  192 230
           Q 194 290  190 370
           Q 186 420  178 458
           L 145 458
           Q 152 420  156 370
           Q 160 290  158 230
           Q 156 168  142 130
           Q 130 95  118 72
           Q 110 55  100 44 Z"
        fill="url(#mantleR)"/>
  <path d="M 160 150 Q 168 220 170 310 Q 172 380 164 445"
        stroke="#2A1402" stroke-width="1.5" fill="none" opacity="0.6"/>
  <path d="M 180 195 Q 184 270 182 355"
        stroke="#2A1402" stroke-width="1" fill="none" opacity="0.35"/>

  <!-- ── TÚNICA INTERNA ── -->
  <path d="M 82 128
           Q 80 160  78 220
           Q 76 285  78 360
           Q 80 415  84 458
           L 116 458
           Q 120 415  122 360
           Q 124 285  122 220
           Q 120 160  118 128
           Q 109 118  100 116
           Q 91 118  82 128 Z"
        fill="url(#robe)"/>
  <path d="M 94 195 Q 93 280 94 385"    stroke="#3B1E04" stroke-width="0.9" fill="none" opacity="0.65"/>
  <path d="M 100 190 Q 99 278 100 388"  stroke="#3B1E04" stroke-width="0.7" fill="none" opacity="0.45"/>
  <path d="M 106 195 Q 107 280 106 385" stroke="#3B1E04" stroke-width="0.9" fill="none" opacity="0.65"/>
  <path d="M 82 145 Q 80 190 79 250"    stroke="#3B1E04" stroke-width="1.1" fill="none" opacity="0.5"/>
  <path d="M 118 145 Q 120 190 121 250" stroke="#3B1E04" stroke-width="1.1" fill="none" opacity="0.5"/>

  <!-- ── BRAÇO ESQUERDO ── -->
  <path d="M 82 132
           Q 70 138  60 155
           Q 50 170  52 185
           Q 55 198  68 200
           Q 78 200  84 192
           Q 90 183  88 170
           Q 86 155  84 140
           Q 83 133  82 130 Z"
        fill="url(#armL)" stroke="#6A3E0A" stroke-width="0.5"/>
  <path d="M 58 158 Q 52 174 55 188"
        stroke="#50300A" stroke-width="1" fill="none" opacity="0.55"/>
  <ellipse cx="83" cy="194" rx="11" ry="8" fill="#A87018" transform="rotate(-35 83 194)"/>
  <path d="M 76 190 Q 82 185 88 188" stroke="#8A5C12" stroke-width="1.3" fill="none" stroke-linecap="round"/>
  <path d="M 75 195 Q 81 190 87 193" stroke="#8A5C12" stroke-width="1.1" fill="none" stroke-linecap="round"/>
  <path d="M 76 200 Q 82 196 88 198" stroke="#8A5C12" stroke-width="1.1" fill="none" stroke-linecap="round"/>

  <!-- ── BRAÇO DIREITO ── -->
  <path d="M 118 132
           Q 130 138  140 155
           Q 150 170  148 185
           Q 145 198  132 200
           Q 122 200  116 192
           Q 110 183  112 170
           Q 114 155  116 140
           Q 117 133  118 130 Z"
        fill="url(#armR)" stroke="#6A3E0A" stroke-width="0.5"/>
  <path d="M 142 158 Q 148 174 145 188"
        stroke="#50300A" stroke-width="1" fill="none" opacity="0.55"/>
  <ellipse cx="117" cy="194" rx="11" ry="8" fill="#A87018" transform="rotate(35 117 194)"/>
  <path d="M 124 190 Q 118 185 112 188" stroke="#8A5C12" stroke-width="1.3" fill="none" stroke-linecap="round"/>
  <path d="M 125 195 Q 119 190 113 193" stroke="#8A5C12" stroke-width="1.1" fill="none" stroke-linecap="round"/>
  <path d="M 124 200 Q 118 196 112 198" stroke="#8A5C12" stroke-width="1.1" fill="none" stroke-linecap="round"/>

  <!-- ── CORAÇÃO IMACULADO ── -->
  <g transform="translate(100, 193)" stroke="#D4AF37" fill="none" opacity="0.9">
    <line x1="0" y1="-30" x2="0" y2="-20"/>
    <line x1="0" y1="-30" x2="0" y2="-20" transform="rotate(45)"/>
    <line x1="0" y1="-30" x2="0" y2="-20" transform="rotate(90)"/>
    <line x1="0" y1="-30" x2="0" y2="-20" transform="rotate(135)"/>
    <line x1="0" y1="-30" x2="0" y2="-20" transform="rotate(180)"/>
    <line x1="0" y1="-30" x2="0" y2="-20" transform="rotate(225)"/>
    <line x1="0" y1="-30" x2="0" y2="-20" transform="rotate(270)"/>
    <line x1="0" y1="-30" x2="0" y2="-20" transform="rotate(315)"/>
    <line x1="0" y1="-25" x2="0" y2="-18" stroke-width="0.7" transform="rotate(22.5)"/>
    <line x1="0" y1="-25" x2="0" y2="-18" stroke-width="0.7" transform="rotate(67.5)"/>
    <line x1="0" y1="-25" x2="0" y2="-18" stroke-width="0.7" transform="rotate(112.5)"/>
    <line x1="0" y1="-25" x2="0" y2="-18" stroke-width="0.7" transform="rotate(157.5)"/>
    <line x1="0" y1="-25" x2="0" y2="-18" stroke-width="0.7" transform="rotate(202.5)"/>
    <line x1="0" y1="-25" x2="0" y2="-18" stroke-width="0.7" transform="rotate(247.5)"/>
    <line x1="0" y1="-25" x2="0" y2="-18" stroke-width="0.7" transform="rotate(292.5)"/>
    <line x1="0" y1="-25" x2="0" y2="-18" stroke-width="0.7" transform="rotate(337.5)"/>
  </g>
  <g transform="translate(100, 193)" fill="#D4AF37" opacity="0.75">
    <polygon points="0,-30 2.5,-22 -2.5,-22"/>
    <polygon points="0,-30 2.5,-22 -2.5,-22" transform="rotate(45)"/>
    <polygon points="0,-30 2.5,-22 -2.5,-22" transform="rotate(90)"/>
    <polygon points="0,-30 2.5,-22 -2.5,-22" transform="rotate(135)"/>
    <polygon points="0,-30 2.5,-22 -2.5,-22" transform="rotate(180)"/>
    <polygon points="0,-30 2.5,-22 -2.5,-22" transform="rotate(225)"/>
    <polygon points="0,-30 2.5,-22 -2.5,-22" transform="rotate(270)"/>
    <polygon points="0,-30 2.5,-22 -2.5,-22" transform="rotate(315)"/>
  </g>
  <path d="M 100 213
           C 96 202  83 196  83 184
           C 83 174  91 169  100 177
           C 109 169  117 174  117 184
           C 117 196  104 202  100 213 Z"
        fill="url(#heart)" stroke="#9A7A1A" stroke-width="1.2"/>
  <path d="M 90 181 C 87 177 85 178 85 182"
        stroke="#E8C84A" stroke-width="1.5" fill="none" opacity="0.75"/>
  <rect x="98" y="168" width="4"  height="8" rx="1"  fill="#D4AF37"/>
  <rect x="94" y="171" width="12" height="3" rx="1"  fill="#D4AF37"/>
  <path d="M 97 168 Q 100 160 103 168"
        stroke="#E8C84A" stroke-width="1.2" fill="none" opacity="0.8"/>

  <!-- ── PESCOÇO ── -->
  <rect x="92" y="98" width="16" height="22" rx="6" fill="#A87018"/>
  <ellipse cx="100" cy="98"  rx="8" ry="3.5" fill="#7A4E10" opacity="0.55"/>
  <path d="M 86 120 Q 100 130 114 120" stroke="#6A3E0A" stroke-width="1.4" fill="none"/>
  <path d="M 78 130 Q 89 122 100 120 Q 111 122 122 130"
        fill="none" stroke="#50300A" stroke-width="1.2"/>

  <!-- ── CINTO DOURADO ── -->
  <path d="M 78 248 Q 100 255 122 248 L 122 263 Q 100 270 78 263 Z"
        fill="url(#gold)"/>
  <line x1="78" y1="255" x2="122" y2="255"
        stroke="#E8D060" stroke-width="0.6" opacity="0.55"/>
  <path d="M 78 248 Q 100 255 122 248 L 122 263 Q 100 270 78 263 Z"
        fill="none" stroke="#9A7A1A" stroke-width="0.6"/>
  <rect x="96" y="250" width="8" height="10" rx="1.5"
        fill="#D4AF37" stroke="#9A7A1A" stroke-width="0.5"/>

  <!-- ── VÉU ESQUERDO (grande, em V invertido) ── -->
  <path d="M 100 32
           Q 88 42  76 56
           Q 60 74  42 105
           Q 26 136  18 175
           Q 12 210  14 240
           L 46 240
           Q 46 210  52 178
           Q 58 145  72 118
           Q 82 98  90 78
           Q 96 60  100 42 Z"
        fill="url(#veil)" opacity="0.97"/>
  <path d="M 100 32 Q 88 42 76 56 Q 60 74 42 105 Q 26 136 18 175 Q 12 210 14 240"
        stroke="#3B1E04" stroke-width="0.9" fill="none"/>
  <path d="M 92 55 Q 80 88 72 130 Q 64 170 62 210"
        stroke="#6A3E0A" stroke-width="0.8" fill="none" opacity="0.5"/>

  <!-- ── VÉU DIREITO ── -->
  <path d="M 100 32
           Q 112 42  124 56
           Q 140 74  158 105
           Q 174 136  182 175
           Q 188 210  186 240
           L 154 240
           Q 154 210  148 178
           Q 142 145  128 118
           Q 118 98  110 78
           Q 104 60  100 42 Z"
        fill="url(#veil)" opacity="0.97"/>
  <path d="M 100 32 Q 112 42 124 56 Q 140 74 158 105 Q 174 136 182 175 Q 188 210 186 240"
        stroke="#3B1E04" stroke-width="0.9" fill="none"/>
  <path d="M 108 55 Q 120 88 128 130 Q 136 170 138 210"
        stroke="#6A3E0A" stroke-width="0.8" fill="none" opacity="0.5"/>

  <!-- Calota do véu (topo) -->
  <ellipse cx="100" cy="50" rx="28" ry="22" fill="#8A5C12" opacity="0.98"/>
  <path d="M 100 28 Q 100 40 100 60"
        stroke="#6A3E0A" stroke-width="0.8" fill="none" opacity="0.65"/>

  <!-- ── ROSTO ── -->
  <ellipse cx="100" cy="72" rx="20" ry="25" fill="url(#face)"/>
  <path d="M 82 82 Q 100 98 118 82" fill="#9A6414"/>

  <!-- Cabelo visível na testa -->
  <path d="M 84 56 Q 100 52 116 56 Q 112 60 100 59 Q 88 60 84 56 Z" fill="#8A5C12"/>
  <path d="M 81 62 Q 83 54 88 54 Q 87 61 83 67 Z" fill="#7A4E10"/>
  <path d="M 119 62 Q 117 54 112 54 Q 113 61 117 67 Z" fill="#7A4E10"/>

  <!-- Sobrancelhas -->
  <path d="M 87 66 Q 92 64 97 66" stroke="#8A5C12" stroke-width="1.5" fill="none" stroke-linecap="round"/>
  <path d="M 103 66 Q 108 64 113 66" stroke="#8A5C12" stroke-width="1.5" fill="none" stroke-linecap="round"/>

  <!-- Olhos — olhar levemente para baixo -->
  <ellipse cx="92"  cy="73" rx="4.5" ry="3" fill="white"/>
  <ellipse cx="108" cy="73" rx="4.5" ry="3" fill="white"/>
  <circle cx="92"  cy="74.5" r="2.3" fill="#6A4010"/>
  <circle cx="108" cy="74.5" r="2.3" fill="#6A4010"/>
  <circle cx="92"  cy="74.8" r="1.4" fill="#2A1402"/>
  <circle cx="108" cy="74.8" r="1.4" fill="#2A1402"/>
  <circle cx="93"  cy="73.5" r="0.7" fill="white"/>
  <circle cx="109" cy="73.5" r="0.7" fill="white"/>
  <path d="M 87.5 71.5 Q 92 69.5 96.5 71.5" stroke="#7A4E10" stroke-width="0.9" fill="none"/>
  <path d="M 103.5 71.5 Q 108 69.5 112.5 71.5" stroke="#7A4E10" stroke-width="0.9" fill="none"/>

  <!-- Nariz -->
  <path d="M 98 80 Q 100 85 102 80"
        stroke="#8A5C12" stroke-width="1.1" fill="none" stroke-linecap="round"/>
  <circle cx="98.5"  cy="83.5" r="1.3" fill="#9A6414" opacity="0.45"/>
  <circle cx="101.5" cy="83.5" r="1.3" fill="#9A6414" opacity="0.45"/>

  <!-- Boca serena -->
  <path d="M 93 89 Q 100 94 107 89"
        stroke="#7A4E10" stroke-width="1.6" fill="none" stroke-linecap="round"/>

  <!-- Bochechas -->
  <ellipse cx="84"  cy="82" rx="7" ry="4.5" fill="#7A4E10" opacity="0.15"/>
  <ellipse cx="116" cy="82" rx="7" ry="4.5" fill="#7A4E10" opacity="0.15"/>

  <!-- ── AURÉOLA ── -->
  <circle cx="100" cy="60" r="34" fill="none" stroke="#D4AF37" stroke-width="1.6" opacity="0.45"/>
  <circle cx="100" cy="60" r="36" fill="none" stroke="#D4AF37" stroke-width="0.6" opacity="0.22"/>
  <g fill="#D4AF37" opacity="0.4">
    <circle cx="100" cy="24" r="1.4"/>
    <circle cx="121" cy="30" r="1.1"/>
    <circle cx="133" cy="48" r="1.1"/>
    <circle cx="79"  cy="30" r="1.1"/>
    <circle cx="67"  cy="48" r="1.1"/>
    <circle cx="100" cy="96" r="1.1"/>
  </g>

  <!-- ── PÉS ── -->
  <ellipse cx="90"  cy="456" rx="10" ry="5" fill="#A87018" opacity="0.85"/>
  <ellipse cx="110" cy="456" rx="10" ry="5" fill="#A87018" opacity="0.85"/>
  <ellipse cx="90"  cy="454" rx="5.5" ry="2.5" fill="#6A3E0A" opacity="0.5"/>
  <ellipse cx="110" cy="454" rx="5.5" ry="2.5" fill="#6A3E0A" opacity="0.5"/>

  <!-- ── PEDESTAL ── -->
  <path d="M 50 462 L 150 462 L 162 476 L 150 490 L 50 490 L 38 476 Z"
        fill="url(#goldV)"/>
  <path d="M 50 462 L 150 462 L 162 476 L 150 490 L 50 490 L 38 476 Z"
        fill="none" stroke="#A08020" stroke-width="0.7"/>
  <line x1="50"  y1="470" x2="150" y2="470" stroke="#C8A030" stroke-width="0.5" opacity="0.65"/>
  <line x1="50"  y1="482" x2="150" y2="482" stroke="#C8A030" stroke-width="0.5" opacity="0.4"/>
  <circle cx="100" cy="476" r="2"   fill="#D4AF37" opacity="0.6"/>
  <circle cx="80"  cy="476" r="1.2" fill="#D4AF37" opacity="0.4"/>
  <circle cx="120" cy="476" r="1.2" fill="#D4AF37" opacity="0.4"/>
</svg>
